<svg width="19" height="19" viewBox="0 0 19 19" fill="none" xmlns="http://www.w3.org/2000/svg">
<path d="M1.68312 10.7569C1.61487 10.348 1.57878 9.92838 1.57878 9.5004C1.57878 9.13043 1.60585 8.76672 1.65714 8.4107C1.02149 8.10961 0.457806 7.68058 0 7.15662V7.58915C4.17668e-05 8.90752 0.6676 10.0699 1.68312 10.7569Z" fill="#312C36"/>
<path d="M3.82166 15.2054C3.93021 15.2054 4.03759 15.2006 4.14385 15.1917C3.27915 14.4247 2.59 13.4641 2.14468 12.3786C1.30859 12.0849 0.571745 11.5785 0 10.9241V11.3837C0 13.4944 1.71102 15.2054 3.82166 15.2054Z" fill="#312C36"/>
<path d="M3.82166 16.4584C2.29901 16.4584 0.930982 15.7842 0 14.7187V15.1783C0 17.289 1.71102 19 3.82166 19C5.32894 19 6.63223 18.1273 7.2543 16.8597C6.64326 16.6991 6.06211 16.4641 5.52094 16.1652C4.98942 16.3548 4.41746 16.4584 3.82166 16.4584Z" fill="#312C36"/>
<path d="M1.94955 7.15381C2.74495 4.70645 4.74922 2.79942 7.25464 2.14101C6.63269 0.873051 5.32923 0 3.82166 0C1.71114 0 0.000208834 1.71081 0 3.82124C0.000167067 5.25205 0.786134 6.4987 1.94955 7.15381Z" fill="#312C36"/>
<path d="M16.7171 8.4107C16.7684 8.76672 16.7955 9.13043 16.7955 9.5004C16.7955 9.92838 16.7594 10.348 16.6912 10.7569C17.7067 10.07 18.3743 8.90756 18.3743 7.58919V7.15662C17.9165 7.68058 17.3528 8.10961 16.7171 8.4107Z" fill="#312C36"/>
<path d="M16.2296 12.3786C15.7843 13.4642 15.0952 14.4247 14.2305 15.1918C14.3367 15.2006 14.4441 15.2054 14.5527 15.2054C16.6633 15.2054 18.3743 13.4944 18.3743 11.3838V10.9242C17.8025 11.5785 17.0657 12.085 16.2296 12.3786Z" fill="#312C36"/>
<path d="M14.5525 16.4584C13.9567 16.4584 13.3848 16.3547 12.8532 16.1652C12.3121 16.4641 11.7309 16.699 11.1199 16.8596C11.7419 18.1272 13.0452 19 14.5525 19C16.6632 19 18.3742 17.2889 18.3742 15.1783V14.7187C17.4432 15.7842 16.0752 16.4584 14.5525 16.4584Z" fill="#312C36"/>
<path d="M16.4247 7.15386C17.5883 6.49874 18.3743 5.25209 18.3743 3.82166C18.3743 1.71102 16.6632 0 14.5526 0C13.045 0 11.7416 0.873051 11.1196 2.14101C13.6251 2.79942 15.6293 4.70645 16.4247 7.15386Z" fill="#312C36"/>
<path d="M8.01538 7.61408C8.01538 8.10998 8.18182 8.42385 8.5606 8.62049V6.62471C8.23324 6.83271 8.01538 7.19833 8.01538 7.61408Z" fill="#312C36"/>
<path d="M9.81372 12.376C10.1411 12.168 10.3589 11.8024 10.3589 11.3867C10.3589 10.8908 10.1925 10.5769 9.81372 10.3803V12.376Z" fill="#312C36"/>
<path d="M15.5425 9.5004C15.5425 5.99044 12.6971 3.14504 9.1871 3.14504C5.67715 3.14504 2.83179 5.9904 2.83179 9.5004C2.83179 13.0104 5.67719 15.8558 9.18715 15.8558C12.6971 15.8558 15.5425 13.0104 15.5425 9.5004ZM9.91806 9.07425C11.0103 9.41929 11.6118 10.2405 11.6118 11.3867C11.6118 12.507 10.8478 13.452 9.81361 13.7289V14.2543H8.5606V13.7289C7.52637 13.452 6.76238 12.5071 6.76238 11.3867H8.01538C8.01538 11.8024 8.23323 12.168 8.5606 12.376V9.9595L8.45614 9.9265C7.3639 9.58147 6.76238 8.76025 6.76238 7.61409C6.76238 6.49373 7.52637 5.5488 8.5606 5.27189V4.7465H9.81361V5.27189C10.8478 5.5488 11.6118 6.49369 11.6118 7.61409H10.3588C10.3588 7.19834 10.141 6.83271 9.81361 6.62471V9.04126L9.91806 9.07425Z" fill="#312C36"/>
</svg>
