<svg width="16" height="16" viewBox="0 0 16 16" fill="none" xmlns="http://www.w3.org/2000/svg">
<path d="M14.7735 0H5.92923C5.2989 0 4.78613 0.5128 4.78613 1.1431V3.82602H5.82961V1.1431C5.82961 1.08817 5.87431 1.04348 5.92923 1.04348H14.7735C14.8284 1.04348 14.8731 1.08817 14.8731 1.1431V9.98734C14.8731 10.0423 14.8284 10.087 14.7735 10.087H12.1742V11.1305H14.7735C15.4038 11.1305 15.9166 10.6177 15.9166 9.98734V1.1431C15.9165 0.5128 15.4038 0 14.7735 0Z" fill="black" fill-opacity="0.4"/>
<path d="M9.98734 4.86951H1.14313C0.5128 4.86951 0 5.38231 0 6.01264V14.8569C3.47826e-05 15.4872 0.5128 16 1.14313 16H9.98738C10.6177 16 11.1305 15.4872 11.1305 14.8569V6.01264C11.1305 5.38231 10.6177 4.86951 9.98734 4.86951ZM9.98741 14.9565H1.14313C1.08817 14.9565 1.04348 14.9118 1.04348 14.8569V6.01264C1.04348 5.95768 1.08817 5.91299 1.14313 5.91299H9.98738C10.0423 5.91299 10.087 5.95768 10.087 6.01264V14.8569H10.0871C10.0871 14.9118 10.0423 14.9565 9.98741 14.9565Z" fill="black" fill-opacity="0.4"/>
</svg>
