<svg width="58" height="72" viewBox="0 0 58 72" fill="none" xmlns="http://www.w3.org/2000/svg">
<path d="M57.5379 14.6939C57.5378 14.3115 57.392 13.9358 57.1111 13.6549L43.8866 0.430384C43.6055 0.149437 43.2298 0.00367347 42.8476 0.00352653V0H1.70474C0.893196 0 0.235352 0.657845 0.235352 1.46939V70.5306C0.235352 71.3422 0.893196 72 1.70474 72H56.0721C56.8836 72 57.5415 71.3422 57.5415 70.5306V14.6939H57.5379ZM44.317 5.01678L52.5247 13.2245H44.317V5.01678ZM3.17413 69.0612V2.93878H41.3782V14.6939C41.3782 15.5054 42.0361 16.1633 42.8476 16.1633H54.6027V69.0612H3.17413Z" fill="#231F20" fill-opacity="0.7"/>
<path d="M50.1943 23.5102H11.9902V26.449H50.1943V23.5102Z" fill="#231F20" fill-opacity="0.7"/>
<path d="M50.1943 32.3265H7.58203V35.2653H50.1943V32.3265Z" fill="#231F20" fill-opacity="0.7"/>
<path d="M50.1943 41.1429H7.58203V44.0816H50.1943V41.1429Z" fill="#231F20" fill-opacity="0.7"/>
<path d="M50.1943 49.9592H7.58203V52.898H50.1943V49.9592Z" fill="#231F20" fill-opacity="0.7"/>
<path d="M41.378 58.7755H7.58203V61.7143H41.378V58.7755Z" fill="#231F20" fill-opacity="0.7"/>
<path d="M50.1946 58.7755H45.0518V61.7143H50.1946V58.7755Z" fill="#231F20" fill-opacity="0.7"/>
<path d="M16.3984 6.61224H7.58203V9.55101H16.3984V6.61224Z" fill="#231F20" fill-opacity="0.7"/>
<path d="M25.2147 11.7551H7.58203V14.6939H25.2147V11.7551Z" fill="#231F20" fill-opacity="0.7"/>
</svg>
