<svg width="66" height="66" viewBox="0 0 66 66" fill="none" xmlns="http://www.w3.org/2000/svg">
<circle cx="33" cy="33" r="33" fill="white" fill-opacity="0.7"/>
<g clip-path="url(#clip0_406_498)">
<path d="M22.6708 37.7837H21.3796V46.8218H22.6708V37.7837Z" fill="#66CEDB"/>
<path d="M26.1872 46.1498L33.2253 49.6217C33.4739 49.7457 33.765 49.7127 34.0039 49.5733L48.0872 41.3467C48.3383 41.2001 48.4939 40.9232 48.4939 40.6333C48.4939 40.3912 48.3874 40.1595 48.2021 40.0032C48.0168 39.847 47.7747 39.7786 47.5345 39.8218L35.6275 41.8922L36.1498 42.4145C36.6165 42.8812 36.8735 43.5016 36.8735 44.1614C36.8735 45.5242 35.7644 46.6327 34.4022 46.6327C33.7411 46.6327 33.1214 46.3757 32.6546 45.9083L29.3157 42.5701L30.2285 41.6572L33.5675 44.9955C33.7876 45.215 34.091 45.3415 34.4022 45.3415C35.0529 45.3415 35.5823 44.8121 35.5823 44.1608C35.5823 43.8457 35.4597 43.643 35.2369 43.4203L30.1504 38.4293H23.9619V46.1763H25.8986C25.9987 46.1763 26.0981 46.1052 26.1872 46.1498Z" fill="#F8CF26"/>
<path d="M38.1646 28.2343C38.5212 28.2343 38.8102 27.9453 38.8102 27.5888C38.8102 27.2322 38.5212 26.9432 38.1646 26.9432C37.8081 26.9432 37.519 27.2322 37.519 27.5888C37.519 27.9453 37.8081 28.2343 38.1646 28.2343Z" fill="#EE8B26"/>
<path d="M33.0001 24.3609C33.3566 24.3609 33.6456 24.0719 33.6456 23.7153C33.6456 23.3588 33.3566 23.0697 33.0001 23.0697C32.6435 23.0697 32.3545 23.3588 32.3545 23.7153C32.3545 24.0719 32.6435 24.3609 33.0001 24.3609Z" fill="#EE8B26"/>
<path d="M25.813 27.6546L35.5825 37.9483L45.352 27.6546C47.8194 25.0555 47.8194 20.8257 45.352 18.2266C44.1674 16.978 42.5947 16.2905 40.9246 16.2905C39.2532 16.2905 37.6813 16.978 36.4966 18.2266L36.0518 18.6959C35.8071 18.9529 35.3598 18.9529 35.1151 18.6959L34.6703 18.2266C33.4856 16.978 31.913 16.2905 30.2423 16.2905C28.5715 16.2905 26.9995 16.978 25.8149 18.2266C23.3456 20.8257 23.3456 25.0555 25.813 27.6546ZM33.6457 31.785H32.3546V30.4939H33.6457V31.785ZM36.2281 31.785H34.9369V30.4939H36.2281V31.785ZM38.8104 31.785H37.5192V30.4939H38.8104V31.785ZM40.1015 27.5888C40.1015 28.6565 39.2326 29.5255 38.1648 29.5255C37.097 29.5255 36.2281 28.6565 36.2281 27.5888C36.2281 26.521 37.097 25.652 38.1648 25.652C39.2326 25.652 40.1015 26.5203 40.1015 27.5888ZM38.3326 21.6669L39.2881 22.5358L32.8323 29.6372L31.8769 28.7682L38.3326 21.6669ZM33.0002 21.7786C34.068 21.7786 34.9369 22.6475 34.9369 23.7153C34.9369 24.7831 34.068 25.652 33.0002 25.652C31.9324 25.652 31.0634 24.7831 31.0634 23.7153C31.0634 22.6469 31.9324 21.7786 33.0002 21.7786Z" fill="#EE8B26"/>
<path d="M49.0337 39.0123C48.5553 38.6094 47.9233 38.4422 47.3139 38.5481L34.5108 40.7747L30.8742 37.2324C30.7529 37.1117 30.5895 37.1382 30.4178 37.1382H23.962C23.962 36.4926 23.6734 36.4926 23.3164 36.4926H20.7341H16.2151V37.7837H20.0886V46.8218H16.2151V48.113H20.7341H23.3164C23.6734 48.113 23.962 47.4674 23.962 47.4674H25.7464L32.6483 50.8238C32.9472 50.9729 33.27 51.0007 33.5928 51C33.9594 51 34.3268 50.8799 34.6547 50.6882L48.7393 42.4616C49.3842 42.0846 49.7851 41.3803 49.7851 40.6333C49.7851 40.009 49.5108 39.4145 49.0337 39.0123ZM22.6709 46.8218H21.3797V37.7837H22.6709V46.8218ZM48.0879 41.3344L34.0046 49.55C33.7658 49.6895 33.4746 49.6992 33.2261 49.5746L26.188 46.1498C26.0982 46.1052 25.9988 46.1763 25.8988 46.1763H23.962V38.4293H30.1505L35.237 43.4209C35.4598 43.6436 35.5824 43.8935 35.5824 44.2085C35.5824 44.8593 35.053 45.3654 34.4023 45.3654C34.0911 45.3654 33.7877 45.2273 33.5676 45.0078L30.2286 41.663L29.3158 42.5726L32.6547 45.9096C33.1215 46.377 33.7419 46.6333 34.4023 46.6333C35.7645 46.6333 36.8736 45.5242 36.8736 44.1614C36.8736 43.5016 36.6166 42.8806 36.1499 42.4138L35.6276 41.8916L47.5346 39.8205C47.7748 39.7773 48.0169 39.8444 48.2022 40.0007C48.3875 40.1562 48.494 40.3848 48.494 40.6275C48.494 40.9174 48.3384 41.1885 48.0879 41.3344Z" fill="black"/>
<path d="M32.8335 29.641L39.2896 22.54L38.3337 21.671L31.8777 28.772L32.8335 29.641Z" fill="black"/>
<path d="M33.0002 25.652C34.068 25.652 34.9369 24.7831 34.9369 23.7153C34.9369 22.6475 34.068 21.7786 33.0002 21.7786C31.9324 21.7786 31.0635 22.6475 31.0635 23.7153C31.0635 24.7831 31.9324 25.652 33.0002 25.652ZM33.0002 23.0697C33.3566 23.0697 33.6458 23.3596 33.6458 23.7153C33.6458 24.071 33.3566 24.3609 33.0002 24.3609C32.6439 24.3609 32.3546 24.071 32.3546 23.7153C32.3546 23.3596 32.6439 23.0697 33.0002 23.0697Z" fill="black"/>
<path d="M36.228 27.5888C36.228 28.6566 37.097 29.5255 38.1648 29.5255C39.2325 29.5255 40.1015 28.6566 40.1015 27.5888C40.1015 26.521 39.2325 25.652 38.1648 25.652C37.097 25.652 36.228 26.5203 36.228 27.5888ZM38.8103 27.5888C38.8103 27.9445 38.5211 28.2343 38.1648 28.2343C37.8084 28.2343 37.5192 27.9445 37.5192 27.5888C37.5192 27.2331 37.8084 26.9432 38.1648 26.9432C38.5211 26.9432 38.8103 27.2324 38.8103 27.5888Z" fill="black"/>
<path d="M35.1137 39.3305C35.2357 39.459 35.4049 39.532 35.5824 39.532C35.7593 39.532 35.9285 39.459 36.0511 39.3305L46.2887 28.5442C49.2209 25.4545 49.2209 20.4274 46.2887 17.3383C44.8574 15.8302 42.9523 15 40.9239 15C38.9059 15 37.0104 15.8212 35.5824 17.3138C34.1544 15.8212 32.259 15 30.2409 15C28.2125 15 26.3074 15.8302 24.8762 17.3383C21.9439 20.428 21.9439 25.4551 24.8762 28.5442L35.1137 39.3305ZM25.8129 18.2266C26.9975 16.9781 28.5695 16.2905 30.2403 16.2905C31.9117 16.2905 33.4837 16.9781 34.6683 18.2266L35.1131 18.6959C35.3578 18.9529 35.8051 18.9529 36.0498 18.6959L36.4946 18.2266C37.6793 16.9781 39.2512 16.2905 40.9226 16.2905C42.5934 16.2905 44.1654 16.9781 45.35 18.2266C47.8174 20.8257 47.8174 25.0555 45.35 27.6546L35.5824 37.9484L25.8129 27.6546C23.3455 25.0555 23.3455 20.8257 25.8129 18.2266Z" fill="black"/>
<path d="M33.6456 30.4939H32.3545V31.785H33.6456V30.4939Z" fill="black"/>
<path d="M36.2279 30.4939H34.9368V31.785H36.2279V30.4939Z" fill="black"/>
<path d="M38.8102 30.4939H37.519V31.785H38.8102V30.4939Z" fill="black"/>
</g>
<defs>
<clipPath id="clip0_406_498">
<rect width="36" height="36" fill="white" transform="translate(15 15)"/>
</clipPath>
</defs>
</svg>
