<svg width="15" height="15" viewBox="0 0 15 15" fill="none" xmlns="http://www.w3.org/2000/svg">
<path d="M3.40918 8.18182V10.9091C3.40918 11.2856 3.71445 11.5909 4.091 11.5909H6.81827C6.99909 11.5909 7.1725 11.519 7.30036 11.3912L14.8003 3.89118C15.0666 3.62491 15.0666 3.19323 14.8003 2.92695L12.073 0.199682C11.9453 0.0718636 11.7718 0 11.591 0C11.4102 0 11.2367 0.0718636 11.1089 0.199727L3.60891 7.69973C3.481 7.82755 3.40918 8.001 3.40918 8.18182ZM4.77282 8.46423L11.591 1.64605L13.354 3.40909L6.53586 10.2273H4.77282V8.46423Z" fill="black" fill-opacity="0.4"/>
<path d="M14.3182 6.81823C13.9416 6.81823 13.6364 7.1235 13.6364 7.50005V13.6364H1.36364V1.36364H7.5C7.87655 1.36364 8.18182 1.05836 8.18182 0.681818C8.18182 0.305273 7.87655 0 7.5 0H0.681818C0.305273 0 0 0.305273 0 0.681818V14.3182C0 14.6947 0.305273 15 0.681818 15H14.3182C14.6947 15 15 14.6947 15 14.3182V7.50005C15 7.12346 14.6947 6.81823 14.3182 6.81823Z" fill="black" fill-opacity="0.4"/>
</svg>
