<svg width="66" height="66" viewBox="0 0 66 66" fill="none" xmlns="http://www.w3.org/2000/svg">
<circle cx="33" cy="33" r="32.5" stroke="#6EDA44"/>
<path d="M46.2701 30.9981H20.0833V48H46.2701V30.9981Z" fill="#006098"/>
<path d="M35.683 30.9981H30.6709V48H35.683V30.9981Z" fill="#BA5061"/>
<path d="M33.5813 30.9981H32.772V48H33.5813V30.9981Z" fill="#D9D9D9"/>
<path d="M42.0628 19.0655C40.6421 17.6448 38.3389 17.6448 36.9182 19.0655C35.8804 20.0257 33.65 24.0254 33.136 25.3607L39.4936 25.2757V25.2755C40.4236 25.2749 41.3532 24.9197 42.0628 24.2101C43.4836 22.7895 43.4836 20.4862 42.0628 19.0655Z" fill="#D85C72"/>
<path d="M42.1102 20.7836C41.0827 19.7561 39.4166 19.7561 38.3891 20.7836C37.6383 21.4783 36.0546 24.3096 35.6829 25.2756H39.4936V25.2755C40.4236 25.2748 41.3532 24.9196 42.0628 24.2101C42.4122 23.8606 42.6753 23.4577 42.8528 23.0277C42.9692 22.2331 42.7218 21.3954 42.1102 20.7836Z" fill="#803743"/>
<path d="M24.2906 19.0655C25.7113 17.6448 28.0146 17.6448 29.4352 19.0655C30.4731 20.0257 32.692 24.037 33.2059 25.3724L26.8599 25.2757V25.2755C25.9299 25.2749 25.0002 24.9197 24.2906 24.2101C22.8699 22.7895 22.8699 20.4862 24.2906 19.0655Z" fill="#D85C72"/>
<path d="M24.2433 20.7836C25.2708 19.7561 26.9368 19.7561 27.9644 20.7836C28.7151 21.4783 30.2989 24.3096 30.6706 25.2756H26.8598V25.2755C25.9298 25.2748 25.0001 24.9196 24.2905 24.2101C23.9411 23.8606 23.6781 23.4577 23.5006 23.0277C23.3842 22.2331 23.6317 21.3954 24.2433 20.7836Z" fill="#803743"/>
<path d="M48.3533 25.2756H35.6827L34.6276 25.8502L33.5813 25.2756H32.7719L31.8072 25.7512L30.6705 25.2756H18V30.9982H30.6705L31.7548 30.0107L32.772 30.9982H33.5813L34.6159 30.3837L35.6827 30.9982H48.3533V25.2756Z" fill="#00BCB4"/>
<path d="M35.6828 25.2756H30.6707V30.9982H35.6828V25.2756Z" fill="#D85C72"/>
<path d="M33.5813 25.2756H32.772V30.9981H33.5813V25.2756Z" fill="white"/>
</svg>
