<svg width="66" height="66" viewBox="0 0 66 66" fill="none" xmlns="http://www.w3.org/2000/svg">
<circle cx="33" cy="33" r="33" fill="#E9F0E5" fill-opacity="0.7"/>
<g clip-path="url(#clip0_406_491)">
<path d="M14.0765 33.4517C14.1696 33.6379 14.3247 33.7775 14.5187 33.8396L19.3743 35.5072C19.4597 35.5383 19.5372 35.546 19.6225 35.546C19.9406 35.546 20.2431 35.3444 20.3517 35.0263L24.1602 23.911L24.3541 23.9808C25.3392 24.3299 26.4407 24.2678 27.3792 23.8102L27.8524 23.5775C28.4186 23.306 29.0779 23.2595 29.6674 23.4689L38.5255 26.525C38.4325 26.8663 38.2541 27.2619 37.9438 27.4791C37.587 27.7273 37.0363 27.7273 36.3149 27.4791L32.3435 26.1217C32.1418 26.0519 31.9169 26.0751 31.7307 26.176C31.5445 26.2768 31.4049 26.4552 31.3506 26.6569C31.3429 26.6802 30.7844 28.7279 29.0624 29.651C27.9765 30.2327 26.6191 30.2482 25.0289 29.7053C24.6256 29.5656 24.1912 29.7828 24.0516 30.1862C23.912 30.5895 24.1292 31.0239 24.5325 31.1635C25.4633 31.4815 26.3476 31.6444 27.1698 31.6444C28.1239 31.6444 29.0004 31.4272 29.7993 31.0006C31.3506 30.1629 32.1728 28.7202 32.5529 27.8281L35.8107 28.9451C37.0208 29.3562 38.0291 29.2941 38.8125 28.7512C40.0459 27.8979 40.1312 26.2303 40.1389 26.0441C40.1467 25.7106 39.9373 25.4081 39.6192 25.2917L30.1561 22.0262C29.1788 21.6926 28.0928 21.7547 27.162 22.2123L26.6889 22.445C26.1149 22.7243 25.4478 22.763 24.8505 22.5536L24.0671 22.2744C24.0206 22.2433 23.974 22.2201 23.9197 22.2046L19.0873 20.5214C18.684 20.3817 18.2496 20.5989 18.11 21.0023L14.0377 32.87C13.9757 33.0561 13.9912 33.2656 14.0765 33.4517ZM19.32 22.2201L22.7175 23.3836L19.1494 33.8008L15.752 32.6373L19.32 22.2201Z" fill="#EE8B26"/>
<path d="M22.0737 40.487C22.4538 41.2627 23.214 41.7126 24.0207 41.7436C24.0207 42.0772 24.0982 42.4184 24.2456 42.7287C24.5093 43.2717 24.967 43.675 25.541 43.8689C25.7814 43.9543 26.0296 43.993 26.2701 43.993C26.6114 43.993 26.9449 43.9155 27.2552 43.7603L27.6585 43.5587C27.6896 43.7914 27.7594 44.0318 27.868 44.2568C28.1317 44.7997 28.5893 45.2031 29.1633 45.397C29.4038 45.4823 29.652 45.5211 29.8925 45.5211C30.2338 45.5211 30.5673 45.4435 30.8776 45.2884L39.6969 40.9679C41.6671 40.0061 43.4821 38.7651 45.0955 37.2835L47.0657 35.4762L51.5723 33.2733C51.9524 33.0872 52.1076 32.6295 51.9214 32.2494L46.4297 20.979C46.3366 20.7928 46.1815 20.6532 45.9875 20.5912C45.7936 20.5214 45.5842 20.5369 45.398 20.63L40.7906 22.8871C40.4105 23.0733 40.2554 23.531 40.4415 23.911L45.7006 34.6618L44.0717 36.1588C42.5669 37.5395 40.8681 38.6952 39.0376 39.595L30.2182 43.9155C30.0476 44.0008 29.8537 44.0086 29.6675 43.9465C29.4891 43.8845 29.3417 43.7526 29.2564 43.5819C29.1711 43.4113 29.1633 43.2174 29.2254 43.0312C29.2874 42.8528 29.4193 42.7054 29.5899 42.6201L34.5232 40.2078C34.9033 40.0216 35.0584 39.564 34.8722 39.1839C34.6861 38.8038 34.2284 38.6487 33.8484 38.8349L28.9151 41.2472L26.5881 42.3874C26.4175 42.4727 26.2236 42.4805 26.0374 42.4184C25.859 42.3564 25.7116 42.2245 25.6263 42.0539C25.541 41.8832 25.5332 41.6893 25.5953 41.5032C25.6573 41.3248 25.7892 41.1774 25.9598 41.0921L33.0339 37.6326C33.414 37.4464 33.5691 36.9888 33.383 36.6087C33.1968 36.2286 32.7392 36.0735 32.3591 36.2596L24.4085 40.1457C24.0517 40.3164 23.6251 40.169 23.4467 39.82C23.3613 39.6493 23.3536 39.4554 23.4156 39.2692C23.4777 39.0908 23.6096 38.9435 23.7802 38.8581L26.9139 37.3223L30.9862 35.3288C31.3662 35.1427 31.5214 34.685 31.3352 34.305C31.149 33.9249 30.6914 33.7698 30.3113 33.9559L23.9741 37.0586C23.6173 37.2292 23.1907 37.0819 23.0123 36.7328C22.8416 36.376 22.989 35.9494 23.3381 35.771L26.7045 34.1266C27.0845 33.9404 27.2397 33.4828 27.0535 33.1027C26.8674 32.7226 26.4097 32.5675 26.0296 32.7536L22.6632 34.398C21.5463 34.941 21.0809 36.2984 21.6316 37.4154C21.7867 37.7334 22.0039 37.9894 22.2677 38.1988C21.8023 38.8271 21.6937 39.7191 22.0737 40.487ZM42.1558 23.9265L45.3825 22.3442L50.2227 32.2339L46.9959 33.8163L42.1558 23.9265Z" fill="#359602"/>
</g>
<defs>
<clipPath id="clip0_406_491">
<rect width="38" height="38" fill="white" transform="translate(14 14)"/>
</clipPath>
</defs>
</svg>
