<svg width="23" height="23" viewBox="0 0 23 23" fill="none" xmlns="http://www.w3.org/2000/svg">
<path d="M8.76266 19.9162V16.9771C8.76265 16.2323 9.36827 15.6272 10.1184 15.6226H12.8728C13.6263 15.6226 14.2372 16.229 14.2372 16.9771V19.9077C14.2372 20.5536 14.7621 21.0786 15.4127 21.0833H17.2919C18.1696 21.0856 19.0121 20.741 19.6335 20.1257C20.2549 19.5103 20.6041 18.6748 20.6041 17.8034V9.45476C20.6041 8.7509 20.2898 8.08326 19.746 7.63168L13.3619 2.56283C12.246 1.67623 10.6522 1.70487 9.56925 2.63098L3.32247 7.63168C2.75296 8.06994 2.41257 8.73957 2.39575 9.45476V17.7949C2.39575 19.611 3.87866 21.0833 5.70792 21.0833H7.5442C7.85746 21.0856 8.15868 20.9636 8.381 20.7445C8.60332 20.5254 8.72835 20.2272 8.72834 19.9162H8.76266Z" fill="#312C36"/>
</svg>
