<svg width="24" height="23" viewBox="0 0 24 23" fill="none" xmlns="http://www.w3.org/2000/svg">
<path d="M16.1539 21.0083L16.7255 19.8651H15.5823L16.1539 21.0083Z" fill="#312C36"/>
<path d="M11.5977 6.61065C11.5699 6.61016 11.5422 6.60739 11.5149 6.60237L4.14209 5.07811V10.3385C4.14209 11.5148 7.20304 12.8237 11.5977 12.8237C15.9924 12.8237 19.0533 11.5148 19.0533 10.3385V5.07811L11.6806 6.60237C11.6532 6.60739 11.6255 6.61016 11.5977 6.61065ZM4.97049 13.2379H6.6273V14.0663H4.97049V16.1373H5.79889V16.9657H4.97049V19.0367H6.6273V19.8651H4.97049V21.5219H7.8699V13.3124C6.86487 13.1378 5.88904 12.8242 4.97049 12.3805V13.2379Z" fill="#312C36"/>
<path d="M11.5976 0L0 3.19763V3.37574L11.5976 5.77396L21.5385 3.71539V3.29704H22.3669V3.54556L23.1953 3.37574V3.19763L11.5976 0Z" fill="#312C36"/>
<path d="M15.3255 19.0367H16.9823V12.8899C16.44 13.0673 15.8865 13.2084 15.3255 13.3124V19.0367ZM15.7397 13.6521H16.5681V18.2083H15.7397V13.6521ZM10.7693 20.5237L10.8894 20.3994C10.9676 20.3218 11.0733 20.2783 11.1835 20.2783C11.2937 20.2783 11.3994 20.3218 11.4776 20.3994L11.5977 20.5237L11.7178 20.3994C11.796 20.3218 11.9017 20.2783 12.0119 20.2783C12.1221 20.2783 12.2278 20.3218 12.306 20.3994L12.4261 20.5237V16.5515H10.7693V20.5237ZM10.7693 13.6355V14.4805H12.4261V13.6355C12.1486 13.6479 11.8752 13.6521 11.5977 13.6521C11.3202 13.6521 11.0468 13.6479 10.7693 13.6355Z" fill="#312C36"/>
<path d="M12.4261 15.3089H10.7693V15.7231H12.4261V15.3089Z" fill="#312C36"/>
<path d="M11.8918 21.4018C11.8136 21.4794 11.7079 21.5229 11.5977 21.5229C11.4875 21.5229 11.3818 21.4794 11.3036 21.4018L11.1835 21.2775L10.7693 21.6917V21.7994L11.5977 22.9012L12.4261 21.7994V21.6917L12.0119 21.2775L11.8918 21.4018ZM22.3669 6.66449V4.53964H21.5385V6.66449C21.6734 6.6275 21.8128 6.60938 21.9527 6.61065C22.0926 6.60965 22.2319 6.62777 22.3669 6.66449ZM21.9527 7.02485C21.7332 7.02551 21.5229 7.11299 21.3677 7.26821C21.2125 7.42342 21.125 7.63375 21.1243 7.85325V9.51006H22.7811V7.85325C22.7795 7.63405 22.6917 7.42428 22.5367 7.26928C22.3817 7.11428 22.1719 7.02648 21.9527 7.02485Z" fill="#312C36"/>
</svg>
