<svg width="24" height="29" viewBox="0 0 24 29" fill="none" xmlns="http://www.w3.org/2000/svg">
<path d="M5.57129 3.35449C5.57129 3.0957 5.78125 2.88574 6.04004 2.88574H6.70898C6.50391 1.3916 5.31738 0.205078 3.82324 0V0.668945C3.82324 0.927734 3.61328 1.1377 3.35449 1.1377C3.0957 1.1377 2.88574 0.927734 2.88574 0.668945V0C1.3916 0.205078 0.205078 1.3916 0 2.88574H0.668945C0.927734 2.88574 1.1377 3.0957 1.1377 3.35449C1.1377 3.61328 0.927734 3.82324 0.668945 3.82324H0C0.205078 5.31738 1.3916 6.49902 2.88574 6.70898V6.04004C2.88574 5.78125 3.0957 5.57129 3.35449 5.57129C3.61328 5.57129 3.82324 5.78125 3.82324 6.04004V6.70898C5.31738 6.50391 6.50391 5.31738 6.70898 3.82324H6.04004C5.78125 3.81836 5.57129 3.6084 5.57129 3.35449ZM5.33203 2.07031L3.6377 3.75977C3.54492 3.85254 3.42773 3.89648 3.30566 3.89648C3.18848 3.89648 3.06641 3.85254 2.97363 3.75977L2.0166 2.79785C1.83594 2.61719 1.83594 2.31934 2.0166 2.13867C2.19727 1.95801 2.49512 1.95801 2.67578 2.13867L3.31055 2.76855L4.67285 1.41113C4.85352 1.23047 5.15137 1.23047 5.33203 1.41113C5.5127 1.5918 5.5127 1.88965 5.33203 2.07031Z" fill="black"/>
<path d="M13.7158 17.666H10.7959V20.6885H13.7158V17.666Z" fill="black"/>
<path d="M8.86719 10.7129V11.709H9.86328V10.7129H8.86719ZM8.86719 10.7129V11.709H9.86328V10.7129H8.86719ZM7.24609 5.22461C7.15332 5.41016 7.05078 5.59082 6.93848 5.76172V13.3447H17.5684V5.22461H7.24609ZM10.7959 11.9824C10.7959 12.3486 10.498 12.6416 10.1367 12.6416H8.59375C8.23242 12.6416 7.93457 12.3437 7.93457 11.9824V10.4395C7.93457 10.0732 8.23242 9.78027 8.59375 9.78027H10.1367C10.5029 9.78027 10.7959 10.0781 10.7959 10.4395V11.9824ZM10.8984 6.92383L9.36035 8.46191C9.26758 8.55469 9.15039 8.59863 9.02832 8.59863C8.90625 8.59863 8.78906 8.55469 8.69629 8.46191L7.82227 7.58789C7.6416 7.40723 7.6416 7.10937 7.82227 6.92871C8.00293 6.74805 8.30078 6.74805 8.48144 6.92871L9.02344 7.4707L10.2295 6.26465C10.4102 6.08398 10.708 6.08398 10.8887 6.26465C11.0791 6.44531 11.0791 6.73828 10.8984 6.92383ZM12.2559 6.89453H16.1084C16.3672 6.89453 16.5771 7.10449 16.5771 7.36328C16.5771 7.62207 16.3672 7.83203 16.1084 7.83203H12.2559C11.9971 7.83203 11.7871 7.62207 11.7871 7.36328C11.7871 7.09961 11.9971 6.89453 12.2559 6.89453ZM16.1084 11.6797H12.2559C11.9971 11.6797 11.7871 11.4697 11.7871 11.2109C11.7871 10.9521 11.9971 10.7422 12.2559 10.7422H16.1084C16.3672 10.7422 16.5771 10.9521 16.5771 11.2109C16.5771 11.4697 16.3672 11.6797 16.1084 11.6797ZM8.86719 11.709H9.86328V10.7129H8.86719V11.709ZM8.86719 10.7129V11.709H9.86328V10.7129H8.86719ZM8.86719 10.7129V11.709H9.86328V10.7129H8.86719Z" fill="black"/>
<path d="M23.7021 10.7988V21.2236H6.8418V14.1191C7.65723 14.0313 8.40918 13.7139 9.02441 13.2354V19.8662C9.02441 20.3545 9.41992 20.75 9.9082 20.75H20.6357C21.124 20.75 21.5195 20.3545 21.5195 19.8662V11.6484C21.5195 11.1602 21.124 10.7646 20.6357 10.7646H10.5918C10.626 10.6084 10.6504 10.4521 10.6699 10.291H23.1943C23.4727 10.291 23.7021 10.5205 23.7021 10.7988ZM6.8418 22.1611H23.707V22.6934C23.707 22.9717 23.4775 23.2012 23.1992 23.2012H7.34961C7.06641 23.2012 6.8418 22.9717 6.8418 22.6934V22.1611ZM19.0049 27.1563H11.5342C11.2852 27.1563 11.085 27.3564 11.085 27.6055C11.085 27.8545 11.2852 28.0547 11.5342 28.0547H19.0098C19.2588 28.0547 19.459 27.8545 19.459 27.6055C19.459 27.3564 19.2539 27.1563 19.0049 27.1563Z" fill="black"/>
</svg>
