<svg width="184" height="147" viewBox="0 0 184 147" fill="none" xmlns="http://www.w3.org/2000/svg">
<path d="M183 139.125H4.74561V146.438H183V139.125Z" fill="#92E3A9"/>
<path opacity="0.5" d="M183 139.125H4.74561V146.438H183V139.125Z" fill="white"/>
<path d="M49.1353 60.6879C48.2631 60.9715 47.4071 61.3026 46.5712 61.6797C47.0282 61.3415 47.4853 60.9987 47.9423 60.6468C49.9807 59.0125 51.9191 57.2573 53.747 55.3906C51.6033 57.477 49.3121 59.4062 46.8911 61.1633C47.2217 60.5823 47.5148 59.9808 47.7687 59.3624C48.2029 58.2244 48.308 57.0771 47.2202 56.4692C45.8856 55.7196 44.263 56.8395 44.6926 58.7545C44.9506 59.8234 45.4545 60.8172 46.1644 61.6569C44.5865 62.7488 42.9391 63.7366 41.2326 64.6141L41.0681 64.6964C41.4309 64.0716 41.75 63.4226 42.0234 62.7539C42.4576 61.6203 42.5627 60.4685 41.4749 59.8652C40.1403 59.1111 38.5177 60.2354 38.9473 62.1505C39.2027 63.2062 39.6985 64.1885 40.3962 65.0209C38.344 66.031 36.2187 66.8903 34.1116 67.8227L33.8054 67.9598C34.2181 67.5173 34.5999 67.0469 34.948 66.552C35.6382 65.5511 36.0038 64.4633 35.0897 63.6131C33.9653 62.571 32.1279 63.2886 32.096 65.2631C32.0964 66.3535 32.3515 67.4288 32.841 68.4032C30.8693 69.3183 28.995 70.43 27.2465 71.7214L27.1917 71.7671C27.4279 71.3924 27.643 71.0048 27.8361 70.6062C28.3526 69.5047 28.5446 68.3712 27.507 67.681C27.2955 67.5345 27.0535 67.438 26.7992 67.3989C26.5449 67.3598 26.285 67.3791 26.0393 67.4553C25.7935 67.5314 25.5683 67.6626 25.3808 67.8387C25.1932 68.0148 25.0481 68.2313 24.9566 68.4717C24.8185 68.2563 24.6303 68.0776 24.4081 67.9507C23.3615 67.3473 22.3331 68.0009 21.4555 68.9242C21.227 69.1665 20.9984 69.4224 20.8019 69.6829C21.4814 67.7924 22.3368 65.9699 23.3569 64.2393C24.3249 64.6665 25.3703 64.8905 26.4284 64.8975C28.5126 64.8975 29.3947 63.1606 28.3709 62.082C27.539 61.209 26.3689 61.5426 25.2628 62.1825C24.8971 62.3949 24.5432 62.6268 24.2025 62.8773C25.2633 61.2811 26.4673 59.7849 27.7996 58.4072C28.6572 59.1155 29.656 59.6328 30.7293 59.9246C32.7541 60.4228 34.0293 58.9557 33.2935 57.6622C32.6993 56.6109 31.4652 56.6521 30.254 57.004C29.6772 57.18 29.111 57.3891 28.5583 57.6302C29.1113 57.0954 29.6827 56.5789 30.2586 56.067C31.0218 55.418 31.808 54.7918 32.6033 54.1793C33.4636 54.8652 34.4587 55.362 35.5239 55.6374C37.5487 56.1356 38.8194 54.6684 38.0881 53.3749C37.4939 52.3237 36.2598 52.3648 35.0486 52.7167C34.7606 52.799 34.4772 52.8996 34.1939 53.0047C35.2497 52.2505 36.3238 51.5147 37.3933 50.7834L38.3897 50.1023C39.2829 50.8517 40.3323 51.392 41.4612 51.6838C43.486 52.182 44.7566 50.7148 44.0253 49.4213C43.4311 48.3701 42.1971 48.4112 40.9858 48.7631C40.5063 48.9068 40.0348 49.0762 39.5735 49.2705C39.7792 49.1242 39.9849 48.978 40.186 48.8134C40.5653 48.5437 40.9356 48.2649 41.3058 47.9816C41.7628 47.6388 42.1925 47.2548 42.6404 46.8938C42.8918 46.6926 43.1386 46.4778 43.3808 46.2584C44.2782 47.015 45.3341 47.5602 46.4706 47.8536C48.4954 48.3518 49.766 46.8846 49.0347 45.5911C48.4405 44.5399 47.2065 44.581 45.9952 44.9329C45.316 45.1427 44.6504 45.3945 44.0025 45.6871C44.8297 44.9192 45.6296 44.1194 46.3838 43.2875L46.5346 43.1138C46.8591 42.7528 47.1836 42.3825 47.4944 42.0077C47.8052 41.6329 48.2029 41.1256 48.5411 40.6731C49.9343 38.8529 51.078 36.8546 51.9416 34.7313C51.0351 36.8279 49.8548 38.7952 48.4314 40.5817C47.0226 42.3756 45.4513 44.0357 43.7374 45.5408L43.55 45.7008C43.9445 45.0259 44.2926 44.325 44.5921 43.6029C45.0491 42.4694 45.1314 41.3176 44.0436 40.7143C42.709 39.9601 41.0864 41.0845 41.516 42.9996C41.7904 44.1342 42.3416 45.1832 43.1203 46.0527L42.7181 46.4001L42.261 46.7932C41.9914 47.008 41.7217 47.2137 41.4475 47.4194L40.9904 47.753C40.6019 48.041 40.2043 48.3198 39.8066 48.594L39.2398 48.9825L38.5908 49.4396C38.9673 48.7906 39.3002 48.1172 39.5872 47.4239C40.0214 46.2859 40.1266 45.1386 39.0387 44.5307C37.7041 43.7811 36.0815 44.9055 36.5112 46.8161C36.7775 47.9156 37.3024 48.9357 38.0423 49.7915L37.5624 50.1023L35.7799 51.2678L35.4325 51.4964L34.4407 52.1591L34.011 52.4471C33.554 52.7624 33.0969 53.0824 32.6399 53.4115C33.0243 52.7528 33.3633 52.0687 33.6545 51.3638C34.0887 50.2303 34.1939 49.0785 33.1061 48.4752C31.7714 47.721 30.1489 48.8454 30.5785 50.7605C30.8497 51.8743 31.386 52.906 32.1417 53.768C31.3646 54.3393 30.6014 54.9244 29.8563 55.5368C29.3124 55.9939 28.7731 56.4509 28.252 56.9446C28.4813 56.5217 28.6843 56.0851 28.8599 55.6374C29.317 54.4993 29.3993 53.3521 28.3115 52.7487C26.9768 51.9946 25.3543 53.119 25.7839 55.034C26.0413 56.089 26.5369 57.0709 27.2328 57.9044C25.7525 59.3768 24.4178 60.9885 23.2472 62.7173C23.3808 62.2184 23.4831 61.7115 23.5534 61.1998C23.6997 59.9932 23.526 58.8597 22.3239 58.5306C20.843 58.1238 19.5404 59.6047 20.4225 61.3689C20.9312 62.3393 21.657 63.1793 22.5433 63.8234C21.3966 65.7065 20.4353 67.6964 19.673 69.7652C19.6573 69.3333 19.6145 68.9028 19.545 68.4763C19.3439 67.2742 18.8548 66.2367 17.607 66.2595C16.0759 66.2915 15.2486 68.0878 16.5924 69.523C17.3138 70.2719 18.1928 70.8511 19.1656 71.2187C18.647 72.818 18.2227 74.4464 17.895 76.0955C17.8447 76.3561 17.8036 76.6166 17.7533 76.8771C17.6985 76.9274 17.6436 76.9777 17.5933 77.0325C17.5385 76.8085 17.4745 76.5754 17.4014 76.3606C17.0174 75.2088 16.373 74.2536 15.148 74.4729C13.6352 74.7335 13.0913 76.6303 14.6453 77.8507C15.4375 78.4523 16.3491 78.8777 17.3191 79.0984L17.3739 79.231C17.2094 80.4696 17.0814 81.7174 17.0037 82.9698C16.9443 83.8839 16.9123 84.8392 16.894 85.7761C15.5868 85.7761 14.6636 87.2113 15.564 88.7653C15.9448 89.4091 16.4315 89.9839 17.0037 90.4656C17.1134 92.2253 17.2871 93.985 17.5202 95.731C17.3351 95.5604 17.1089 95.4408 16.8638 95.384C16.6186 95.3271 16.3629 95.3348 16.1216 95.4065C15.2989 95.6304 14.9286 96.2932 14.7915 97.1067C14.5031 97.4125 14.34 97.8154 14.3345 98.2357C13.722 97.3216 13.1461 96.4074 12.5839 95.4385C13.4405 94.782 14.1504 93.9538 14.6681 93.0069C15.6554 91.1786 14.5447 89.5743 13.1095 89.9628C11.944 90.2782 11.6835 91.4711 11.7383 92.7464C11.756 93.23 11.8018 93.7123 11.8755 94.1907C11.6698 93.8387 11.4687 93.4822 11.2721 93.1303C10.7694 92.2162 10.358 91.302 9.86438 90.3879C9.74555 90.1639 9.64042 89.9308 9.53987 89.7023C10.5043 89.2195 11.3561 88.5389 12.04 87.7049C13.3518 86.0869 12.5611 84.309 11.0802 84.4232C9.87809 84.5192 9.39818 85.639 9.19707 86.9005C9.11288 87.4499 9.06402 88.004 9.05081 88.5597L8.62117 87.5678C7.70748 85.3173 6.95449 83.0049 6.36785 80.6479C7.45691 80.2599 8.44653 79.6355 9.26563 78.8196C10.7328 77.3342 10.1249 75.4922 8.63945 75.4556C7.43281 75.4282 6.84319 76.4932 6.51411 77.741C6.35249 78.4035 6.23039 79.075 6.14846 79.752C5.83308 78.3809 5.55885 77.0325 5.33031 75.6613C5.17491 74.8112 5.07436 73.9473 4.96466 73.088C6.13755 72.8558 7.24243 72.3604 8.1961 71.6392C9.84153 70.3594 9.47588 68.4397 8.0087 68.2249C6.81577 68.0375 6.09361 69.0202 5.60912 70.204C5.32368 70.9505 5.08404 71.7136 4.89153 72.4893C4.80012 71.4929 4.695 70.4919 4.64929 69.491C4.51902 67.4237 4.52818 65.3501 4.67671 63.284C4.46571 65.3489 4.39394 67.4256 4.46189 69.5001C4.46189 70.4554 4.54417 71.4061 4.60358 72.3613C4.3414 71.7124 4.03601 71.0817 3.68946 70.4736C3.06328 69.427 2.236 68.6454 1.07962 69.1025C-0.337272 69.6875 -0.460679 71.6529 1.3173 72.5122C2.36462 72.9918 3.51277 73.2098 4.663 73.1475C4.74527 73.9976 4.81383 74.8523 4.94638 75.6979C5.12464 77.0462 5.35317 78.3854 5.61826 79.7155C5.32905 79.2049 5.0053 78.7147 4.64929 78.2483C3.89514 77.293 2.9673 76.6166 1.90691 77.2336C0.576855 77.9969 0.709404 79.976 2.58336 80.5839C3.64625 80.9147 4.77222 80.9899 5.86965 80.8033C6.38962 83.1868 7.07536 85.5312 7.92186 87.8192L8.1961 88.5048C7.95417 88.1847 7.69317 87.8794 7.41452 87.5907C6.56896 86.7131 5.58627 86.1326 4.56245 86.8594C3.31466 87.7506 3.64832 89.6932 5.57256 90.1228C6.63945 90.3399 7.74198 90.3086 8.79485 90.0314C8.88627 90.2645 8.98682 90.4885 9.10109 90.7261C9.55815 91.6677 9.96494 92.6321 10.4449 93.5553L10.8608 94.3461C10.6243 94.1383 10.3772 93.943 10.1203 93.761C9.12394 93.0617 8.04527 92.6778 7.18142 93.5782C6.1256 94.6889 6.8112 96.5354 8.78571 96.5948C9.7959 96.6215 10.7999 96.4297 11.7292 96.0326C12.2914 97.0565 12.8764 98.0666 13.5072 99.0584C13.7403 99.4378 13.9642 99.8126 14.2293 100.187C13.8706 99.8507 13.4905 99.5378 13.0913 99.2504C12.0994 98.5511 11.0162 98.1671 10.1569 99.0675C9.09652 100.178 9.78668 102.025 11.7612 102.084C12.8897 102.097 14.0051 101.842 15.0155 101.339C15.3385 101.796 15.6767 102.253 16.0302 102.71C15.2943 103.565 15.532 104.996 17.0266 105.649C17.7529 105.951 18.5263 106.122 19.3119 106.157L19.5953 106.371L19.6455 106.408C20.5891 109.939 21.7087 113.42 23.0004 116.838C23.5519 118.298 24.1339 119.744 24.7464 121.176H19.2616V142.809H36.0176V121.171H27.0637C26.3004 119.503 25.5691 117.816 24.8835 116.111C23.7637 113.31 22.749 110.471 21.8623 107.587C22.0122 107.632 22.1649 107.667 22.3194 107.692C22.5225 107.732 22.7305 107.742 22.9364 107.72L22.6987 106.216H22.6667H22.5388C22.4565 106.216 22.3468 106.175 22.2508 106.161C22.0408 106.102 21.836 106.025 21.6383 105.933L21.4007 105.823C22.2815 105.516 23.0992 105.051 23.814 104.452C25.4045 103.081 24.952 101.207 23.4757 101.047C22.2737 100.914 21.5972 101.929 21.1904 103.131C21.067 103.474 20.9665 103.83 20.875 104.178C20.7928 103.858 20.7014 103.538 20.6237 103.218C20.3814 102.272 20.1666 101.316 19.9472 100.361C20.9022 100.057 21.7888 99.5695 22.557 98.9258C24.1476 97.5547 23.6951 95.6853 22.2188 95.5253C21.0167 95.3928 20.3403 96.4074 19.9335 97.6095C19.8089 97.9589 19.7021 98.3143 19.6135 98.6745C19.4764 97.9752 19.3393 97.2804 19.2205 96.5811C19.1291 96.0601 19.0514 95.5436 18.9737 95.0225C18.9417 94.2821 18.9325 93.5416 18.9417 92.7966C18.9417 92.3899 18.9417 91.9831 18.9782 91.5717C19.8736 91.8586 20.8138 91.9794 21.7526 91.9282C23.8322 91.7911 24.6047 90.0085 23.5169 88.9984C22.6302 88.1711 21.4829 88.5825 20.418 89.2864C19.9396 89.6098 19.4817 89.9624 19.0468 90.3422C19.1733 88.6027 19.4361 86.8758 19.8329 85.1774C20.0698 84.1775 20.3628 83.1917 20.7105 82.2248C21.6658 82.5557 22.6765 82.6969 23.686 82.6407C25.7656 82.5081 26.5381 80.7256 25.4502 79.7109C24.5635 78.8882 23.4163 79.295 22.3514 80.0034C21.9732 80.2585 21.6086 80.5331 21.259 80.8261C21.6589 79.8797 22.1263 78.9632 22.6576 78.0838C23.7211 76.3159 25.0499 74.722 26.5975 73.3577C27.3926 74.0942 28.3329 74.6563 29.3581 75.0077C31.3372 75.6567 32.7176 74.2856 32.1005 72.9418C31.5886 71.8494 30.3682 71.7991 29.1205 72.0597C28.6457 72.1622 28.1772 72.2919 27.7173 72.4482L27.7447 72.4207C29.4501 71.0898 31.2881 69.938 33.2295 68.9836C33.9122 69.8825 34.7825 70.6218 35.7799 71.1501C37.631 72.1054 39.2124 70.9719 38.8011 69.5458C38.4674 68.3849 37.2745 68.1426 35.9947 68.1746C35.4955 68.2036 34.9982 68.2585 34.5047 68.3392C36.5615 67.3656 38.6685 66.4469 40.6933 65.3728L40.7345 65.35C41.6439 66.1329 42.7215 66.696 43.8836 66.9954C45.9084 67.4982 47.1836 66.0264 46.4523 64.7329C45.8536 63.6817 44.6241 63.7274 43.4083 64.0748C43.0655 64.1753 42.7227 64.2987 42.3936 64.4267C43.747 63.6384 45.059 62.781 46.3243 61.858L46.434 61.9723C46.4315 61.9556 46.4315 61.9387 46.434 61.922C47.35 62.7131 48.4351 63.2838 49.6061 63.5903C51.6308 64.0885 52.9015 62.6213 52.1702 61.3278C51.5806 60.2903 50.3648 60.336 49.1353 60.6879ZM17.1774 102.102C16.766 101.613 16.373 101.111 15.9845 100.599C16.0804 100.516 16.181 100.425 16.2816 100.324C16.8511 100.502 17.4408 100.608 18.0367 100.64C18.0367 100.672 18.0367 100.704 18.0367 100.736L18.3155 100.676C18.4572 101.399 18.6126 102.116 18.7725 102.834C18.5857 102.592 18.343 102.399 18.0651 102.271C17.7873 102.144 17.4826 102.086 17.1774 102.102ZM18.672 84.894C18.5303 85.4288 18.4069 85.9727 18.2972 86.5166C18.2766 86.4819 18.252 86.4497 18.2241 86.4206C18.2241 85.3054 18.2424 84.1932 18.2789 83.084C18.3109 82.307 18.3658 81.5346 18.4343 80.7576C18.8084 81.1428 19.222 81.4875 19.6684 81.786C19.2753 82.8014 18.9426 83.8393 18.672 84.894ZM20.546 79.7749C20.546 79.5738 20.5917 79.3681 20.6054 79.167C20.6054 79.0619 20.6054 78.9613 20.6054 78.8608C20.7699 78.8105 20.9345 78.7511 21.1036 78.6825C20.9116 79.0436 20.7242 79.4047 20.546 79.7749ZM22.9273 75.9081C22.8462 75.7284 22.73 75.5667 22.5856 75.4325C22.4412 75.2983 22.2714 75.1943 22.0863 75.1266C20.9619 74.6695 20.0432 75.4922 19.3165 76.5434L19.2845 76.5937H19.2113C19.1347 76.5764 19.0567 76.5657 18.9782 76.5617C18.9782 76.4977 18.9782 76.4338 19.0102 76.3698C19.3002 74.7207 19.6895 73.0906 20.1757 71.4883C21.225 71.6206 22.2902 71.5382 23.3066 71.2461C23.9282 71.0863 24.4727 70.7104 24.8424 70.1857C25.0455 71.1058 25.4275 71.9771 25.9667 72.7498C24.8456 73.6981 23.8269 74.7613 22.9273 75.9218V75.9081Z" fill="#92E3A9"/>
<path opacity="0.5" d="M49.1353 60.6879C48.2631 60.9715 47.4071 61.3026 46.5712 61.6797C47.0282 61.3415 47.4853 60.9987 47.9423 60.6468C49.9807 59.0125 51.9191 57.2573 53.747 55.3906C51.6033 57.477 49.3121 59.4062 46.8911 61.1633C47.2217 60.5823 47.5148 59.9808 47.7687 59.3624C48.2029 58.2244 48.308 57.0771 47.2202 56.4692C45.8856 55.7196 44.263 56.8395 44.6926 58.7545C44.9506 59.8234 45.4545 60.8172 46.1644 61.6569C44.5865 62.7488 42.9391 63.7366 41.2326 64.6141L41.0681 64.6964C41.4309 64.0716 41.75 63.4226 42.0234 62.7539C42.4576 61.6203 42.5627 60.4685 41.4749 59.8652C40.1403 59.1111 38.5177 60.2354 38.9473 62.1505C39.2027 63.2062 39.6985 64.1885 40.3962 65.0209C38.344 66.031 36.2187 66.8903 34.1116 67.8227L33.8054 67.9598C34.2181 67.5173 34.5999 67.0469 34.948 66.552C35.6382 65.5511 36.0038 64.4633 35.0897 63.6131C33.9653 62.571 32.1279 63.2886 32.096 65.2631C32.0964 66.3535 32.3515 67.4288 32.841 68.4032C30.8693 69.3183 28.995 70.43 27.2465 71.7214L27.1917 71.7671C27.4279 71.3924 27.643 71.0048 27.8361 70.6062C28.3526 69.5047 28.5446 68.3712 27.507 67.681C27.2955 67.5345 27.0535 67.438 26.7992 67.3989C26.5449 67.3598 26.285 67.3791 26.0393 67.4553C25.7935 67.5314 25.5683 67.6626 25.3808 67.8387C25.1932 68.0148 25.0481 68.2313 24.9566 68.4717C24.8185 68.2563 24.6303 68.0776 24.4081 67.9507C23.3615 67.3473 22.3331 68.0009 21.4555 68.9242C21.227 69.1665 20.9984 69.4224 20.8019 69.6829C21.4814 67.7924 22.3368 65.9699 23.3569 64.2393C24.3249 64.6665 25.3703 64.8905 26.4284 64.8975C28.5126 64.8975 29.3947 63.1606 28.3709 62.082C27.539 61.209 26.3689 61.5426 25.2628 62.1825C24.8971 62.3949 24.5432 62.6268 24.2025 62.8773C25.2633 61.2811 26.4673 59.7849 27.7996 58.4072C28.6572 59.1155 29.656 59.6328 30.7293 59.9246C32.7541 60.4228 34.0293 58.9557 33.2935 57.6622C32.6993 56.6109 31.4652 56.6521 30.254 57.004C29.6772 57.18 29.111 57.3891 28.5583 57.6302C29.1113 57.0954 29.6827 56.5789 30.2586 56.067C31.0218 55.418 31.808 54.7918 32.6033 54.1793C33.4636 54.8652 34.4587 55.362 35.5239 55.6374C37.5487 56.1356 38.8194 54.6684 38.0881 53.3749C37.4939 52.3237 36.2598 52.3648 35.0486 52.7167C34.7606 52.799 34.4772 52.8996 34.1939 53.0047C35.2497 52.2505 36.3238 51.5147 37.3933 50.7834L38.3897 50.1023C39.2829 50.8517 40.3323 51.392 41.4612 51.6838C43.486 52.182 44.7566 50.7148 44.0253 49.4213C43.4311 48.3701 42.1971 48.4112 40.9858 48.7631C40.5063 48.9068 40.0348 49.0762 39.5735 49.2705C39.7792 49.1242 39.9849 48.978 40.186 48.8134C40.5653 48.5437 40.9356 48.2649 41.3058 47.9816C41.7628 47.6388 42.1925 47.2548 42.6404 46.8938C42.8918 46.6926 43.1386 46.4778 43.3808 46.2584C44.2782 47.015 45.3341 47.5602 46.4706 47.8536C48.4954 48.3518 49.766 46.8846 49.0347 45.5911C48.4405 44.5399 47.2065 44.581 45.9952 44.9329C45.316 45.1427 44.6504 45.3945 44.0025 45.6871C44.8297 44.9192 45.6296 44.1194 46.3838 43.2875L46.5346 43.1138C46.8591 42.7528 47.1836 42.3825 47.4944 42.0077C47.8052 41.6329 48.2029 41.1256 48.5411 40.6731C49.9343 38.8529 51.078 36.8546 51.9416 34.7313C51.0351 36.8279 49.8548 38.7952 48.4314 40.5817C47.0226 42.3756 45.4513 44.0357 43.7374 45.5408L43.55 45.7008C43.9445 45.0259 44.2926 44.325 44.5921 43.6029C45.0491 42.4694 45.1314 41.3176 44.0436 40.7143C42.709 39.9601 41.0864 41.0845 41.516 42.9996C41.7904 44.1342 42.3416 45.1832 43.1203 46.0527L42.7181 46.4001L42.261 46.7932C41.9914 47.008 41.7217 47.2137 41.4475 47.4194L40.9904 47.753C40.6019 48.041 40.2043 48.3198 39.8066 48.594L39.2398 48.9825L38.5908 49.4396C38.9673 48.7906 39.3002 48.1172 39.5872 47.4239C40.0214 46.2859 40.1266 45.1386 39.0387 44.5307C37.7041 43.7811 36.0815 44.9055 36.5112 46.8161C36.7775 47.9156 37.3024 48.9357 38.0423 49.7915L37.5624 50.1023L35.7799 51.2678L35.4325 51.4964L34.4407 52.1591L34.011 52.4471C33.554 52.7624 33.0969 53.0824 32.6399 53.4115C33.0243 52.7528 33.3633 52.0687 33.6545 51.3638C34.0887 50.2303 34.1939 49.0785 33.1061 48.4752C31.7714 47.721 30.1489 48.8454 30.5785 50.7605C30.8497 51.8743 31.386 52.906 32.1417 53.768C31.3646 54.3393 30.6014 54.9244 29.8563 55.5368C29.3124 55.9939 28.7731 56.4509 28.252 56.9446C28.4813 56.5217 28.6843 56.0851 28.8599 55.6374C29.317 54.4993 29.3993 53.3521 28.3115 52.7487C26.9768 51.9946 25.3543 53.119 25.7839 55.034C26.0413 56.089 26.5369 57.0709 27.2328 57.9044C25.7525 59.3768 24.4178 60.9885 23.2472 62.7173C23.3808 62.2184 23.4831 61.7115 23.5534 61.1998C23.6997 59.9932 23.526 58.8597 22.3239 58.5306C20.843 58.1238 19.5404 59.6047 20.4225 61.3689C20.9312 62.3393 21.657 63.1793 22.5433 63.8234C21.3966 65.7065 20.4353 67.6964 19.673 69.7652C19.6573 69.3333 19.6145 68.9028 19.545 68.4763C19.3439 67.2742 18.8548 66.2367 17.607 66.2595C16.0759 66.2915 15.2486 68.0878 16.5924 69.523C17.3138 70.2719 18.1928 70.8511 19.1656 71.2187C18.647 72.818 18.2227 74.4464 17.895 76.0955C17.8447 76.3561 17.8036 76.6166 17.7533 76.8771C17.6985 76.9274 17.6436 76.9777 17.5933 77.0325C17.5385 76.8085 17.4745 76.5754 17.4014 76.3606C17.0174 75.2088 16.373 74.2536 15.148 74.4729C13.6352 74.7335 13.0913 76.6303 14.6453 77.8507C15.4375 78.4523 16.3491 78.8777 17.3191 79.0984L17.3739 79.231C17.2094 80.4696 17.0814 81.7174 17.0037 82.9698C16.9443 83.8839 16.9123 84.8392 16.894 85.7761C15.5868 85.7761 14.6636 87.2113 15.564 88.7653C15.9448 89.4091 16.4315 89.9839 17.0037 90.4656C17.1134 92.2253 17.2871 93.985 17.5202 95.731C17.3351 95.5604 17.1089 95.4408 16.8638 95.384C16.6186 95.3271 16.3629 95.3348 16.1216 95.4065C15.2989 95.6304 14.9286 96.2932 14.7915 97.1067C14.5031 97.4125 14.34 97.8154 14.3345 98.2357C13.722 97.3216 13.1461 96.4074 12.5839 95.4385C13.4405 94.782 14.1504 93.9538 14.6681 93.0069C15.6554 91.1786 14.5447 89.5743 13.1095 89.9628C11.944 90.2782 11.6835 91.4711 11.7383 92.7464C11.756 93.23 11.8018 93.7123 11.8755 94.1907C11.6698 93.8387 11.4687 93.4822 11.2721 93.1303C10.7694 92.2162 10.358 91.302 9.86438 90.3879C9.74555 90.1639 9.64042 89.9308 9.53987 89.7023C10.5043 89.2195 11.3561 88.5389 12.04 87.7049C13.3518 86.0869 12.5611 84.309 11.0802 84.4232C9.87809 84.5192 9.39818 85.639 9.19707 86.9005C9.11288 87.4499 9.06402 88.004 9.05081 88.5597L8.62117 87.5678C7.70748 85.3173 6.95449 83.0049 6.36785 80.6479C7.45691 80.2599 8.44653 79.6355 9.26563 78.8196C10.7328 77.3342 10.1249 75.4922 8.63945 75.4556C7.43281 75.4282 6.84319 76.4932 6.51411 77.741C6.35249 78.4035 6.23039 79.075 6.14846 79.752C5.83308 78.3809 5.55885 77.0325 5.33031 75.6613C5.17491 74.8112 5.07436 73.9473 4.96466 73.088C6.13755 72.8558 7.24243 72.3604 8.1961 71.6392C9.84153 70.3594 9.47588 68.4397 8.0087 68.2249C6.81577 68.0375 6.09361 69.0202 5.60912 70.204C5.32368 70.9505 5.08404 71.7136 4.89153 72.4893C4.80012 71.4929 4.695 70.4919 4.64929 69.491C4.51902 67.4237 4.52818 65.3501 4.67671 63.284C4.46571 65.3489 4.39394 67.4256 4.46189 69.5001C4.46189 70.4554 4.54417 71.4061 4.60358 72.3613C4.3414 71.7124 4.03601 71.0817 3.68946 70.4736C3.06328 69.427 2.236 68.6454 1.07962 69.1025C-0.337272 69.6875 -0.460679 71.6529 1.3173 72.5122C2.36462 72.9918 3.51277 73.2098 4.663 73.1475C4.74527 73.9976 4.81383 74.8523 4.94638 75.6979C5.12464 77.0462 5.35317 78.3854 5.61826 79.7155C5.32905 79.2049 5.0053 78.7147 4.64929 78.2483C3.89514 77.293 2.9673 76.6166 1.90691 77.2336C0.576855 77.9969 0.709404 79.976 2.58336 80.5839C3.64625 80.9147 4.77222 80.9899 5.86965 80.8033C6.38962 83.1868 7.07536 85.5312 7.92186 87.8192L8.1961 88.5048C7.95417 88.1847 7.69317 87.8794 7.41452 87.5907C6.56896 86.7131 5.58627 86.1326 4.56245 86.8594C3.31466 87.7506 3.64832 89.6932 5.57256 90.1228C6.63945 90.3399 7.74198 90.3086 8.79485 90.0314C8.88627 90.2645 8.98682 90.4885 9.10109 90.7261C9.55815 91.6677 9.96494 92.6321 10.4449 93.5553L10.8608 94.3461C10.6243 94.1383 10.3772 93.943 10.1203 93.761C9.12394 93.0617 8.04527 92.6778 7.18142 93.5782C6.1256 94.6889 6.8112 96.5354 8.78571 96.5948C9.7959 96.6215 10.7999 96.4297 11.7292 96.0326C12.2914 97.0565 12.8764 98.0666 13.5072 99.0584C13.7403 99.4378 13.9642 99.8126 14.2293 100.187C13.8706 99.8507 13.4905 99.5378 13.0913 99.2504C12.0994 98.5511 11.0162 98.1671 10.1569 99.0675C9.09652 100.178 9.78668 102.025 11.7612 102.084C12.8897 102.097 14.0051 101.842 15.0155 101.339C15.3385 101.796 15.6767 102.253 16.0302 102.71C15.2943 103.565 15.532 104.996 17.0266 105.649C17.7529 105.951 18.5263 106.122 19.3119 106.157L19.5953 106.371L19.6455 106.408C20.5891 109.939 21.7087 113.42 23.0004 116.838C23.5519 118.298 24.1339 119.744 24.7464 121.176H19.2616V142.809H36.0176V121.171H27.0637C26.3004 119.503 25.5691 117.816 24.8835 116.111C23.7637 113.31 22.749 110.471 21.8623 107.587C22.0122 107.632 22.1649 107.667 22.3194 107.692C22.5225 107.732 22.7305 107.742 22.9364 107.72L22.6987 106.216H22.6667H22.5388C22.4565 106.216 22.3468 106.175 22.2508 106.161C22.0408 106.102 21.836 106.025 21.6383 105.933L21.4007 105.823C22.2815 105.516 23.0992 105.051 23.814 104.452C25.4045 103.081 24.952 101.207 23.4757 101.047C22.2737 100.914 21.5972 101.929 21.1904 103.131C21.067 103.474 20.9665 103.83 20.875 104.178C20.7928 103.858 20.7014 103.538 20.6237 103.218C20.3814 102.272 20.1666 101.316 19.9472 100.361C20.9022 100.057 21.7888 99.5695 22.557 98.9258C24.1476 97.5547 23.6951 95.6853 22.2188 95.5253C21.0167 95.3928 20.3403 96.4074 19.9335 97.6095C19.8089 97.9589 19.7021 98.3143 19.6135 98.6745C19.4764 97.9752 19.3393 97.2804 19.2205 96.5811C19.1291 96.0601 19.0514 95.5436 18.9737 95.0225C18.9417 94.2821 18.9325 93.5416 18.9417 92.7966C18.9417 92.3899 18.9417 91.9831 18.9782 91.5717C19.8736 91.8586 20.8138 91.9794 21.7526 91.9282C23.8322 91.7911 24.6047 90.0085 23.5169 88.9984C22.6302 88.1711 21.4829 88.5825 20.418 89.2864C19.9396 89.6098 19.4817 89.9624 19.0468 90.3422C19.1733 88.6027 19.4361 86.8758 19.8329 85.1774C20.0698 84.1775 20.3628 83.1917 20.7105 82.2248C21.6658 82.5557 22.6765 82.6969 23.686 82.6407C25.7656 82.5081 26.5381 80.7256 25.4502 79.7109C24.5635 78.8882 23.4163 79.295 22.3514 80.0034C21.9732 80.2585 21.6086 80.5331 21.259 80.8261C21.6589 79.8797 22.1263 78.9632 22.6576 78.0838C23.7211 76.3159 25.0499 74.722 26.5975 73.3577C27.3926 74.0942 28.3329 74.6563 29.3581 75.0077C31.3372 75.6567 32.7176 74.2856 32.1005 72.9418C31.5886 71.8494 30.3682 71.7991 29.1205 72.0597C28.6457 72.1622 28.1772 72.2919 27.7173 72.4482L27.7447 72.4207C29.4501 71.0898 31.2881 69.938 33.2295 68.9836C33.9122 69.8825 34.7825 70.6218 35.7799 71.1501C37.631 72.1054 39.2124 70.9719 38.8011 69.5458C38.4674 68.3849 37.2745 68.1426 35.9947 68.1746C35.4955 68.2036 34.9982 68.2585 34.5047 68.3392C36.5615 67.3656 38.6685 66.4469 40.6933 65.3728L40.7345 65.35C41.6439 66.1329 42.7215 66.696 43.8836 66.9954C45.9084 67.4982 47.1836 66.0264 46.4523 64.7329C45.8536 63.6817 44.6241 63.7274 43.4083 64.0748C43.0655 64.1753 42.7227 64.2987 42.3936 64.4267C43.747 63.6384 45.059 62.781 46.3243 61.858L46.434 61.9723C46.4315 61.9556 46.4315 61.9387 46.434 61.922C47.35 62.7131 48.4351 63.2838 49.6061 63.5903C51.6308 64.0885 52.9015 62.6213 52.1702 61.3278C51.5806 60.2903 50.3648 60.336 49.1353 60.6879ZM17.1774 102.102C16.766 101.613 16.373 101.111 15.9845 100.599C16.0804 100.516 16.181 100.425 16.2816 100.324C16.8511 100.502 17.4408 100.608 18.0367 100.64C18.0367 100.672 18.0367 100.704 18.0367 100.736L18.3155 100.676C18.4572 101.399 18.6126 102.116 18.7725 102.834C18.5857 102.592 18.343 102.399 18.0651 102.271C17.7873 102.144 17.4826 102.086 17.1774 102.102ZM18.672 84.894C18.5303 85.4288 18.4069 85.9727 18.2972 86.5166C18.2766 86.4819 18.252 86.4497 18.2241 86.4206C18.2241 85.3054 18.2424 84.1932 18.2789 83.084C18.3109 82.307 18.3658 81.5346 18.4343 80.7576C18.8084 81.1428 19.222 81.4875 19.6684 81.786C19.2753 82.8014 18.9426 83.8393 18.672 84.894ZM20.546 79.7749C20.546 79.5738 20.5917 79.3681 20.6054 79.167C20.6054 79.0619 20.6054 78.9613 20.6054 78.8608C20.7699 78.8105 20.9345 78.7511 21.1036 78.6825C20.9116 79.0436 20.7242 79.4047 20.546 79.7749ZM22.9273 75.9081C22.8462 75.7284 22.73 75.5667 22.5856 75.4325C22.4412 75.2983 22.2714 75.1943 22.0863 75.1266C20.9619 74.6695 20.0432 75.4922 19.3165 76.5434L19.2845 76.5937H19.2113C19.1347 76.5764 19.0567 76.5657 18.9782 76.5617C18.9782 76.4977 18.9782 76.4338 19.0102 76.3698C19.3002 74.7207 19.6895 73.0906 20.1757 71.4883C21.225 71.6206 22.2902 71.5382 23.3066 71.2461C23.9282 71.0863 24.4727 70.7104 24.8424 70.1857C25.0455 71.1058 25.4275 71.9771 25.9667 72.7498C24.8456 73.6981 23.8269 74.7613 22.9273 75.9218V75.9081Z" fill="white"/>
<path d="M179.06 143.718C179.06 144.815 153.958 145.702 122.997 145.702C92.0352 145.702 66.9287 144.815 66.9287 143.718C66.9287 142.621 92.0306 141.739 122.997 141.739C153.963 141.739 179.06 142.626 179.06 143.718Z" fill="#92E3A9"/>
<path opacity="0.3" d="M179.06 143.718C179.06 144.815 153.958 145.702 122.997 145.702C92.0352 145.702 66.9287 144.815 66.9287 143.718C66.9287 142.621 92.0306 141.739 122.997 141.739C153.963 141.739 179.06 142.626 179.06 143.718Z" fill="#2E353A"/>
<path d="M118.961 125.92C118.961 125.92 121.703 137.639 120.501 139.568C118.952 142.086 102.429 143.604 102.429 143.604H138.861C138.861 143.604 143.432 142.324 142.061 138.654C140.996 135.811 135.899 125.92 135.899 125.92H118.961Z" fill="white" stroke="#2E353A" stroke-linecap="round" stroke-linejoin="round"/>
<path d="M118.165 125.92C118.165 125.92 121.072 137.74 119.706 139.568C118.339 141.396 102.429 142.79 102.429 142.79H139.03C139.03 142.79 142.111 141.547 141.256 138.654C140.402 135.761 135.1 125.92 135.1 125.92H118.165Z" fill="white" stroke="#2E353A" stroke-linecap="round" stroke-linejoin="round"/>
<g style="mix-blend-mode:multiply">
<path d="M135.099 125.92H118.188C118.188 125.92 119.907 132.922 120.076 136.981H140.644C138.957 133.078 135.099 125.92 135.099 125.92Z" fill="#92E3A9"/>
</g>
<path d="M138.861 142.85H102.429V143.604H138.861V142.85Z" fill="white" stroke="#2E353A" stroke-linecap="round" stroke-linejoin="round"/>
<path d="M178.959 44.6267H76.7826C74.642 44.6267 72.9067 46.362 72.9067 48.5026V123.201C72.9067 125.341 74.642 127.076 76.7826 127.076H178.959C181.1 127.076 182.835 125.341 182.835 123.201V48.5026C182.835 46.362 181.1 44.6267 178.959 44.6267Z" fill="#92E3A9" stroke="#2E353A" stroke-linecap="round" stroke-linejoin="round"/>
<path d="M176.368 44.6267H74.1913C72.0507 44.6267 70.3154 46.362 70.3154 48.5026V123.201C70.3154 125.341 72.0507 127.076 74.1913 127.076H176.368C178.508 127.076 180.244 125.341 180.244 123.201V48.5026C180.244 46.362 178.508 44.6267 176.368 44.6267Z" fill="#2E353A" stroke="#2E353A" stroke-linecap="round" stroke-linejoin="round"/>
<path d="M70.3154 114.256H180.244V123.191C180.244 124.219 179.835 125.205 179.109 125.932C178.382 126.659 177.396 127.067 176.368 127.067H74.1913C73.1634 127.067 72.1775 126.659 71.4507 125.932C70.7238 125.205 70.3154 124.219 70.3154 123.191V114.256Z" fill="white" stroke="#2E353A" stroke-linecap="round" stroke-linejoin="round"/>
<path d="M174.718 49.755H75.8457V108.003H174.718V49.755Z" fill="#92E3A9" stroke="#2E353A" stroke-linecap="round" stroke-linejoin="round"/>
<path d="M127.306 120.664C127.306 120.262 127.187 119.87 126.964 119.536C126.741 119.202 126.424 118.942 126.052 118.788C125.681 118.635 125.273 118.595 124.879 118.674C124.486 118.752 124.124 118.946 123.84 119.23C123.557 119.515 123.364 119.877 123.286 120.271C123.208 120.665 123.249 121.073 123.403 121.444C123.558 121.814 123.818 122.131 124.153 122.353C124.487 122.576 124.88 122.694 125.281 122.693C125.548 122.693 125.811 122.641 126.057 122.539C126.303 122.437 126.527 122.287 126.715 122.098C126.903 121.91 127.052 121.686 127.153 121.44C127.255 121.194 127.307 120.93 127.306 120.664Z" fill="#2E353A" stroke="#2E353A" stroke-linecap="round" stroke-linejoin="round"/>
<path d="M173.79 53.8594H76.623V58.9648H173.79V53.8594Z" fill="#2E353A" stroke="#2E353A" stroke-linecap="round" stroke-linejoin="round"/>
<path d="M92.6523 58.9694L91.4913 55.8156H76.623V58.9694V63.1515V105.521H173.79V58.9694H92.6523Z" fill="white" stroke="#2E353A" stroke-linecap="round" stroke-linejoin="round"/>
<path d="M146.384 144.052C146.384 144.052 147.011 145.565 150.461 146.09C153.912 146.616 177.186 143.892 177.186 143.892C177.186 143.892 178.648 143.526 178.754 142.795C178.859 142.064 174.987 139.92 167.825 139.029C161.592 138.313 155.279 139.029 149.364 141.122C144.922 142.745 146.384 144.052 146.384 144.052Z" fill="white" stroke="#2E353A" stroke-linecap="round" stroke-linejoin="round"/>
<g style="mix-blend-mode:multiply">
<path d="M173.168 141.488C171.614 141.488 168.1 141.652 165.238 141.899C162.377 142.146 157.637 143.942 155.023 144.838C152.409 145.734 148.24 145.496 148.24 145.496C148.953 145.786 149.699 145.986 150.462 146.09C153.912 146.611 177.186 143.892 177.186 143.892C177.696 143.764 178.167 143.513 178.557 143.16C177.081 142.091 174.439 141.488 173.168 141.488Z" fill="#92E3A9"/>
</g>
<path d="M177.697 142.653C177.901 142.76 178.095 142.884 178.278 143.023" stroke="#2E353A" stroke-linecap="round" stroke-linejoin="round"/>
<path d="M148.948 145.725C151.373 145.797 153.789 145.388 156.056 144.522C160.863 142.63 165.973 141.619 171.139 141.538C174.142 141.515 175.979 141.926 177.08 142.342" stroke="#2E353A" stroke-linecap="round" stroke-linejoin="round"/>
<path d="M168.259 83.2577H137.965V101.696H168.118" stroke="#2E353A" stroke-width="0.5" stroke-linecap="round" stroke-linejoin="round"/>
<path d="M138.103 88.5139H168.397" stroke="#2E353A" stroke-width="0.5" stroke-linecap="round" stroke-linejoin="round"/>
<path d="M138.103 93.7564H168.397" stroke="#2E353A" stroke-width="0.5" stroke-linecap="round" stroke-linejoin="round"/>
<path d="M138.103 98.999H168.397" stroke="#2E353A" stroke-width="0.5" stroke-linecap="round" stroke-linejoin="round"/>
<path d="M137.134 83.3811H135.891" stroke="#2E353A" stroke-width="0.5" stroke-linecap="round" stroke-linejoin="round"/>
<path d="M137.134 85.9772H135.891" stroke="#2E353A" stroke-width="0.5" stroke-linecap="round" stroke-linejoin="round"/>
<path d="M137.134 88.5779H135.891" stroke="#2E353A" stroke-width="0.5" stroke-linecap="round" stroke-linejoin="round"/>
<path d="M137.134 91.1786H135.891" stroke="#2E353A" stroke-width="0.5" stroke-linecap="round" stroke-linejoin="round"/>
<path d="M137.134 93.7747H135.891" stroke="#2E353A" stroke-width="0.5" stroke-linecap="round" stroke-linejoin="round"/>
<path d="M137.134 96.3754H135.891" stroke="#2E353A" stroke-width="0.5" stroke-linecap="round" stroke-linejoin="round"/>
<path d="M137.134 98.9761H135.891" stroke="#2E353A" stroke-width="0.5" stroke-linecap="round" stroke-linejoin="round"/>
<path d="M137.134 101.572H135.891" stroke="#2E353A" stroke-width="0.5" stroke-linecap="round" stroke-linejoin="round"/>
<path d="M140.461 90.6393H139.067V101.623H140.461V90.6393Z" fill="#2E353A" stroke="#2E353A" stroke-linecap="round" stroke-linejoin="round"/>
<path d="M142.934 85.3831H141.54V101.623H142.934V85.3831Z" fill="#92E3A9" stroke="#2E353A" stroke-linecap="round" stroke-linejoin="round"/>
<path d="M145.411 90.6393H144.017V101.623H145.411V90.6393Z" fill="white" stroke="#2E353A" stroke-linecap="round" stroke-linejoin="round"/>
<path d="M150.978 87.0833H149.584V101.623H150.978V87.0833Z" fill="#2E353A" stroke="#2E353A" stroke-linecap="round" stroke-linejoin="round"/>
<path d="M153.451 89.2498H152.057V101.623H153.451V89.2498Z" fill="#92E3A9" stroke="#2E353A" stroke-linecap="round" stroke-linejoin="round"/>
<path d="M155.929 95.4339H154.535V101.623H155.929V95.4339Z" fill="white" stroke="#2E353A" stroke-linecap="round" stroke-linejoin="round"/>
<path d="M161.495 90.6393H160.101V101.623H161.495V90.6393Z" fill="#2E353A" stroke="#2E353A" stroke-linecap="round" stroke-linejoin="round"/>
<path d="M163.968 85.3831H162.574V101.623H163.968V85.3831Z" fill="#92E3A9" stroke="#2E353A" stroke-linecap="round" stroke-linejoin="round"/>
<path d="M166.445 90.6393H165.051V101.623H166.445V90.6393Z" fill="white" stroke="#2E353A" stroke-linecap="round" stroke-linejoin="round"/>
<path opacity="0.4" d="M129.172 65.903L144.63 77.4713V61.3187L129.172 1V65.903Z" fill="#92E3A9" stroke="white" stroke-linecap="round" stroke-linejoin="round"/>
<path opacity="0.4" d="M144.63 77.4713H94.3527L12.7715 65.903H129.172L144.63 77.4713Z" fill="#92E3A9" stroke="white" stroke-linecap="round" stroke-linejoin="round"/>
<path d="M129.172 1H12.7715V59.5041H129.172V1Z" fill="black" stroke="#2E353A" stroke-linecap="round" stroke-linejoin="round"/>
<path d="M17.2593 4.03488H39.5046" stroke="white" stroke-width="2" stroke-linecap="round" stroke-linejoin="round"/>
<path d="M126.209 3.76069C126.209 3.45856 126.12 3.16323 125.952 2.91208C125.784 2.66094 125.545 2.46528 125.266 2.34987C124.987 2.23446 124.68 2.20449 124.383 2.26377C124.087 2.32305 123.815 2.4689 123.602 2.68285C123.388 2.89681 123.243 3.16924 123.185 3.46567C123.127 3.76211 123.158 4.06919 123.274 4.34806C123.39 4.62693 123.586 4.86503 123.838 5.03223C124.09 5.19942 124.385 5.28818 124.687 5.28728C124.888 5.28728 125.086 5.24776 125.271 5.17099C125.456 5.09421 125.624 4.98169 125.765 4.83987C125.907 4.69806 126.019 4.52973 126.095 4.34454C126.171 4.15936 126.21 3.96095 126.209 3.76069V3.76069Z" fill="white"/>
<path d="M119.688 3.76068C119.687 3.45985 119.597 3.16603 119.429 2.91633C119.261 2.66664 119.023 2.47227 118.745 2.35777C118.467 2.24328 118.161 2.21379 117.866 2.27303C117.571 2.33227 117.3 2.47759 117.088 2.69063C116.875 2.90367 116.731 3.17487 116.672 3.46999C116.614 3.76511 116.645 4.0709 116.76 4.34875C116.875 4.62659 117.07 4.86403 117.32 5.03107C117.571 5.19812 117.865 5.28727 118.166 5.28727C118.366 5.28727 118.564 5.24775 118.749 5.17097C118.934 5.0942 119.102 4.98168 119.243 4.83986C119.385 4.69805 119.497 4.52972 119.573 4.34453C119.649 4.15934 119.688 3.96094 119.688 3.76068V3.76068Z" fill="white"/>
<path d="M129.172 7.39893H12.7715V65.903H129.172V7.39893Z" fill="white" stroke="#2E353A" stroke-linecap="round" stroke-linejoin="round"/>
<path d="M123.687 13.4961H20.9985V60.4183H123.381" stroke="#2E353A" stroke-width="0.5" stroke-linecap="round" stroke-linejoin="round"/>
<path d="M21.3047 26.8698H123.989" stroke="#2E353A" stroke-width="0.5" stroke-linecap="round" stroke-linejoin="round"/>
<path d="M21.3047 40.216H123.989" stroke="#2E353A" stroke-width="0.5" stroke-linecap="round" stroke-linejoin="round"/>
<path d="M21.3047 53.5623H123.989" stroke="#2E353A" stroke-width="0.5" stroke-linecap="round" stroke-linejoin="round"/>
<path d="M19.1706 13.7978H16.4282" stroke="#2E353A" stroke-width="0.5" stroke-linecap="round" stroke-linejoin="round"/>
<path d="M19.1706 20.4161H16.4282" stroke="#2E353A" stroke-width="0.5" stroke-linecap="round" stroke-linejoin="round"/>
<path d="M19.1706 27.0343H16.4282" stroke="#2E353A" stroke-width="0.5" stroke-linecap="round" stroke-linejoin="round"/>
<path d="M19.1706 33.648H16.4282" stroke="#2E353A" stroke-width="0.5" stroke-linecap="round" stroke-linejoin="round"/>
<path d="M19.1706 40.2663H16.4282" stroke="#2E353A" stroke-width="0.5" stroke-linecap="round" stroke-linejoin="round"/>
<path d="M19.1706 46.88H16.4282" stroke="#2E353A" stroke-width="0.5" stroke-linecap="round" stroke-linejoin="round"/>
<path d="M19.1706 53.4983H16.4282" stroke="#2E353A" stroke-width="0.5" stroke-linecap="round" stroke-linejoin="round"/>
<path d="M19.1706 60.1166H16.4282" stroke="#2E353A" stroke-width="0.5" stroke-linecap="round" stroke-linejoin="round"/>
<path d="M21.7617 27.1166C21.7617 27.1166 30.7476 27.5097 32.5758 26.2939C34.4041 25.0781 36.8448 22.6374 38.3668 22.939C40.017 23.3659 41.6447 23.8754 43.2437 24.4656C43.2437 24.4656 46.9002 22.3311 47.8143 22.3311C48.7285 22.3311 51.7725 23.8532 54.2132 23.8532H61.22L63.9624 25.9877L69.1409 24.4656L74.9319 26.9018L78.5884 26.2939L83.7669 29.0363H86.2077L91.08 31.1662H97.4788L101.135 33.3007L106.926 33.6069L111.497 38.1775L115.153 37.5651L119.116 39.0917L122.773 38.7854" stroke="#92E3A9" stroke-width="3" stroke-linecap="round" stroke-linejoin="round"/>
<path d="M21.606 28.73H32.8817L39.5868 29.6442L45.0716 29.9504L49.9439 33.3007L56.9552 31.1662L65.484 34.2148L74.9315 32.6928L78.2818 34.2148L85.9011 25.6814H93.5203L98.0909 20.8091L102.963 22.939L106.012 20.1967L109.975 22.3311L112.411 19.2825L113.933 19.5888L117.896 18.3684L119.724 19.5888L122.772 18.9809" stroke="#2E353A" stroke-width="3" stroke-linecap="round" stroke-linejoin="round"/>
<path d="M21.9126 58.59H33.7962L42.9375 53.4115L49.6426 56.4601H54.5149L56.9556 57.3742L62.4404 54.6318L69.7534 50.0612L72.1896 53.4115L76.7602 52.8036L79.1964 53.4115L85.2936 53.7177L91.9941 48.2329L95.349 52.1911L99.6134 51.8894L102.05 53.4115L105.706 52.4973L110.583 54.3256L117.288 53.4115L120.945 54.0194L123.074 53.4115" stroke="#92E3A9" stroke-width="3" stroke-linecap="round" stroke-linejoin="round"/>
<path opacity="0.4" d="M94.6587 70.172L121.776 81.7357V102.153L94.6587 131.72V70.172Z" fill="#92E3A9" stroke="white" stroke-linecap="round" stroke-linejoin="round"/>
<path d="M94.6589 70.172H34.7104V128.676H94.6589V70.172Z" fill="black" stroke="#2E353A" stroke-linecap="round" stroke-linejoin="round"/>
<path d="M94.6589 76.5709H34.7104V131.725H94.6589V76.5709Z" fill="white" stroke="#2E353A" stroke-linecap="round" stroke-linejoin="round"/>
<path d="M64.255 103.922L40.4877 103.899C40.4472 100.703 41.0725 97.5342 42.3236 94.5936C43.5748 91.6529 45.4245 89.005 47.755 86.8182L64.255 103.922Z" fill="black" stroke="white" stroke-miterlimit="10"/>
<path d="M64.2553 103.922L58.085 126.862C53.0109 125.547 48.5228 122.572 45.3361 118.41C42.1494 114.249 40.4476 109.14 40.5017 103.899L64.2553 103.922Z" fill="black" stroke="white" stroke-miterlimit="10"/>
<path d="M65.3197 104.589L76.4949 83.6234C81.63 86.3791 85.5737 90.9254 87.5763 96.3984C89.5789 101.871 89.501 107.889 87.3572 113.308C85.2135 118.728 81.1533 123.17 75.9486 125.792C70.7438 128.414 64.7571 129.032 59.1265 127.529L65.3197 104.589Z" fill="#92E3A9" stroke="white" stroke-miterlimit="10"/>
<path d="M64.255 103.922L63.0347 80.1954C67.3436 79.9075 71.6449 80.8591 75.4302 82.9378L64.255 103.922Z" fill="black" stroke="white" stroke-miterlimit="10"/>
<path d="M64.2548 103.922L47.7686 86.8182C51.8253 82.7429 57.287 80.3734 63.0345 80.1954L64.2548 103.922Z" fill="black" stroke="white" stroke-miterlimit="10"/>
<path d="M92.2184 73.5085C92.2184 73.2075 92.1291 72.9132 91.9619 72.663C91.7946 72.4127 91.5569 72.2176 91.2788 72.1024C91.0007 71.9872 90.6946 71.957 90.3994 72.0158C90.1042 72.0745 89.833 72.2194 89.6201 72.4323C89.4073 72.6452 89.2623 72.9164 89.2036 73.2116C89.1448 73.5068 89.175 73.8129 89.2902 74.091C89.4054 74.3691 89.6005 74.6068 89.8508 74.7741C90.101 74.9413 90.3953 75.0305 90.6963 75.0305C90.8962 75.0305 91.0941 74.9912 91.2788 74.9147C91.4635 74.8382 91.6312 74.7261 91.7726 74.5848C91.9139 74.4434 92.026 74.2756 92.1025 74.091C92.179 73.9063 92.2184 73.7084 92.2184 73.5085V73.5085Z" fill="white"/>
<path d="M85.7002 73.5086C85.7011 73.2064 85.6123 72.9108 85.4451 72.6592C85.2779 72.4075 85.0398 72.2112 84.7609 72.0949C84.4821 71.9787 84.175 71.9478 83.8785 72.0062C83.5821 72.0645 83.3097 72.2096 83.0957 72.4229C82.8818 72.6362 82.7359 72.9082 82.6766 73.2045C82.6174 73.5007 82.6473 73.8079 82.7627 74.0871C82.8781 74.3663 83.0738 74.605 83.325 74.773C83.5761 74.9409 83.8714 75.0306 84.1736 75.0306C84.5776 75.0306 84.9653 74.8704 85.2514 74.5851C85.5376 74.2998 85.6989 73.9126 85.7002 73.5086Z" fill="white"/>
<g style="mix-blend-mode:multiply" opacity="0.73">
<path d="M94.6589 76.5709H34.7104V83.6416H94.6589V76.5709Z" fill="#92E3A9"/>
<path d="M94.6589 76.5709H34.7104V83.6416H94.6589V76.5709Z" stroke="white" stroke-linecap="round" stroke-linejoin="round"/>
</g>
</svg>
