<svg width="66" height="66" viewBox="0 0 66 66" fill="none" xmlns="http://www.w3.org/2000/svg">
<circle cx="33" cy="33" r="33" fill="white" fill-opacity="0.7"/>
<path d="M17.2664 34.5551L11.7649 31.9843C11.2981 31.7662 10.7448 31.8595 10.3753 32.219C10.0059 32.5784 9.8974 33.129 10.1026 33.6017L11.2826 36.3188L17.2664 34.5551Z" fill="#6EDA44" fill-opacity="0.9"/>
<path d="M27.1833 33.1059L13.1955 37.2285C12.6589 37.3867 12.2945 37.8846 12.3064 38.444C12.3181 39.0032 12.7029 39.4855 13.2459 39.621L28.3356 43.388C28.4343 43.4127 28.535 43.4249 28.6359 43.4249C28.7534 43.4249 28.8709 43.4083 28.9847 43.3749L52.2856 36.547C55.0328 35.7284 56.6016 32.8274 55.7829 30.0797C55.1309 27.8929 53.0829 26.3652 50.8026 26.3652C50.3007 26.3652 49.8005 26.4386 49.3197 26.5818L38.3142 29.8254L36.3802 28.9218L23.9575 23.1168C23.363 22.8389 22.6549 23.0727 22.3423 23.6497L21.4816 25.2387C21.2367 25.6907 21.2962 26.247 21.631 26.637L26.174 31.9299L27.1833 33.1059Z" fill="#6EDA44" fill-opacity="0.9"/>
</svg>
